<?xml version="1.0" encoding="UTF-8" standalone="no"?>
<!DOCTYPE svg PUBLIC "-//W3C//DTD SVG 1.1//EN"
 "http://www.w3.org/Graphics/SVG/1.1/DTD/svg11.dtd">
<!-- Generated by graphviz version 12.2.0 (20241103.1931)
 -->
<!-- Title: dependency&#45;cruiser output Pages: 1 -->
<svg width="117pt" height="86pt"
 viewBox="0.00 0.00 117.00 85.75" xmlns="http://www.w3.org/2000/svg" xmlns:xlink="http://www.w3.org/1999/xlink">
<g id="graph0" class="graph" transform="scale(1 1) rotate(0) translate(4 81.75)">
<title>dependency&#45;cruiser output</title>
<polygon fill="white" stroke="none" points="-4,4 -4,-81.75 113,-81.75 113,4 -4,4"/>
<!-- .dependency&#45;cruiser.js -->
<g id="node1" class="node">
<title>.dependency&#45;cruiser.js</title>
<g id="a_node1"><a xlink:href=".dependency-cruiser.js" xlink:title=".dependency&#45;cruiser.js">
<path fill="#ccffcc" stroke="black" d="M103.08,-17.75C103.08,-17.75 5.92,-17.75 5.92,-17.75 2.96,-17.75 0,-14.79 0,-11.83 0,-11.83 0,-5.92 0,-5.92 0,-2.96 2.96,0 5.92,0 5.92,0 103.08,0 103.08,0 106.04,0 109,-2.96 109,-5.92 109,-5.92 109,-11.83 109,-11.83 109,-14.79 106.04,-17.75 103.08,-17.75"/>
<text text-anchor="middle" x="54.5" y="-5.2" font-family="Helvetica,sans-Serif" font-size="9.00">.dependency&#45;cruiser.js</text>
</a>
</g>
</g>
<!-- index.js -->
<g id="node2" class="node">
<title>index.js</title>
<g id="a_node2"><a xlink:href="index.js" xlink:title="no&#45;orphans">
<path fill="#ccffcc" stroke="orange" d="M75.58,-47.75C75.58,-47.75 33.42,-47.75 33.42,-47.75 30.46,-47.75 27.5,-44.79 27.5,-41.83 27.5,-41.83 27.5,-35.92 27.5,-35.92 27.5,-32.96 30.46,-30 33.42,-30 33.42,-30 75.58,-30 75.58,-30 78.54,-30 81.5,-32.96 81.5,-35.92 81.5,-35.92 81.5,-41.83 81.5,-41.83 81.5,-44.79 78.54,-47.75 75.58,-47.75"/>
<text text-anchor="middle" x="54.5" y="-35.2" font-family="Helvetica,sans-Serif" font-size="9.00" fill="orange">index.js</text>
</a>
</g>
</g>
<!-- types.ts -->
<g id="node3" class="node">
<title>types.ts</title>
<g id="a_node3"><a xlink:href="types.ts" xlink:title="no&#45;orphans">
<path fill="#ccffcc" stroke="orange" d="M75.58,-77.75C75.58,-77.75 33.42,-77.75 33.42,-77.75 30.46,-77.75 27.5,-74.79 27.5,-71.83 27.5,-71.83 27.5,-65.92 27.5,-65.92 27.5,-62.96 30.46,-60 33.42,-60 33.42,-60 75.58,-60 75.58,-60 78.54,-60 81.5,-62.96 81.5,-65.92 81.5,-65.92 81.5,-71.83 81.5,-71.83 81.5,-74.79 78.54,-77.75 75.58,-77.75"/>
<text text-anchor="middle" x="54.5" y="-65.2" font-family="Helvetica,sans-Serif" font-size="9.00" fill="orange">types.ts</text>
</a>
</g>
</g>
</g>
</svg>
